<svg width="60" height="60" viewBox="0 0 60 60" fill="none" xmlns="http://www.w3.org/2000/svg">
<rect width="60" height="60" rx="30" fill="#FE2B5E"/>
<g clip-path="url(#clip0_1_136)">
<path d="M49.0988 29.7842C49.8502 29.7842 50.4737 29.7937 51.0971 29.7799C51.3989 29.7738 51.6583 29.9018 51.6531 30.1707C51.6462 30.5114 51.2994 30.3583 51.1109 30.3601C49.2087 30.3739 47.3012 30.3895 45.3981 30.3601C44.8412 30.3506 44.657 30.501 44.689 31.0596C44.7366 31.8724 44.7003 32.6895 44.7029 33.5049C44.7029 33.7686 44.7227 34.0237 44.3241 33.9977C43.9722 33.977 44.018 33.7383 44.0172 33.5179C44.0172 32.6463 43.9999 31.7738 44.0241 30.9031C44.0345 30.5071 43.9117 30.3592 43.4966 30.3661C41.8209 30.3955 40.1449 30.4076 38.4686 30.4024C38.1011 30.4024 37.9403 30.5287 37.98 30.891C37.9818 30.9198 37.9818 30.9487 37.98 30.9775C37.8538 33.421 37.8538 33.421 40.3371 33.421C40.9061 33.421 41.4748 33.421 42.0431 33.421C42.2541 33.421 42.4504 33.4487 42.4495 33.728C42.4495 34.0332 42.2143 33.9952 42.0258 33.996C40.6043 33.996 39.1828 33.9908 37.7621 34.0047C37.4258 34.0047 37.3108 33.8793 37.3125 33.5645C37.3229 31.3164 37.3275 29.0683 37.3264 26.8201C37.3264 26.4794 37.4664 26.393 37.7855 26.3956C39.1499 26.4077 40.5144 26.3956 41.8788 26.4008C42.0769 26.4008 42.293 26.3817 42.3112 26.6697C42.3337 26.9982 42.1149 27.0233 41.8685 27.0233C40.7885 27.0233 39.7068 27.0501 38.6285 27.0112C38.0899 26.9913 37.9714 27.1841 37.9653 27.6848C37.9411 29.7799 37.9247 29.7799 40.0751 29.7799C41.2122 29.7799 42.3492 29.766 43.4863 29.7877C43.8866 29.7954 44.0388 29.6813 44.0241 29.2689C43.9956 28.4829 44.0241 27.6943 44.012 26.9074C44.0059 26.5728 44.0768 26.3809 44.4746 26.3886C45.469 26.4103 46.4694 26.3394 47.4577 26.4224C49.0954 26.5616 49.8329 27.754 49.3064 29.2853C49.2623 29.4159 49.2017 29.5386 49.0988 29.7842ZM46.4253 29.7799C46.7374 29.7799 47.0496 29.7799 47.3617 29.7799C48.3397 29.7799 48.7158 29.4703 48.7789 28.6255C48.8438 27.7548 48.3751 27.1556 47.4949 27.0622C46.9328 27.0043 46.3561 27.0821 45.7967 27.0129C44.932 26.9066 44.6354 27.1816 44.6795 28.086C44.7608 29.7738 44.7029 29.7799 46.4253 29.7799Z" fill="white"/>
<path d="M18.9037 24.7092C18.0685 26.9236 17.3162 28.9192 16.5639 30.9149C16.4939 31.0991 16.4377 31.2884 16.3521 31.4657C16.2406 31.6974 16.0062 31.6576 15.8333 31.6084C15.5739 31.5349 15.7287 31.349 15.7831 31.2037C16.6556 28.9227 17.5367 26.6443 18.3919 24.3572C18.5095 24.0442 18.6919 24.0053 18.9677 24.0001C19.3568 23.9932 19.4001 24.2785 19.5038 24.5423C20.7299 27.7381 21.9586 30.9336 23.1899 34.1289C23.3914 34.6529 23.5903 35.1786 23.7813 35.706C23.8401 35.8677 24.0529 36.0804 23.7355 36.1816C23.5072 36.2542 23.2937 36.1902 23.1925 35.917C22.9201 35.1803 22.6322 34.4471 22.3529 33.7138C22.007 32.7955 21.6378 31.8825 21.3153 30.9538C21.1649 30.5154 20.9435 30.3191 20.4558 30.3589C19.9682 30.3987 19.4917 30.3407 19.0092 30.3433C18.7619 30.3433 18.6227 30.2128 18.5959 30.007C18.5492 29.6473 18.8553 29.8219 19.0084 29.783C19.0945 29.7727 19.1816 29.7727 19.2678 29.783C20.8553 29.7701 20.8562 29.7701 20.276 28.2586C19.8428 27.138 19.4104 26.0226 18.9037 24.7092Z" fill="white"/>
<path d="M26.0898 34.2066C24.5057 34.198 23.5104 33.4889 23.341 32.2429C23.3133 32.0389 23.1577 31.7717 23.5295 31.7172C23.8105 31.6766 23.9523 31.7535 24.0405 32.0951C24.4106 33.533 26.312 34.1366 27.5199 33.2347C28.427 32.5577 28.2791 31.2226 27.2 30.786C26.4425 30.479 25.6237 30.3277 24.8455 30.0657C24.0673 29.8037 23.5286 29.3221 23.4949 28.4228C23.456 27.3671 23.9506 26.6572 24.9838 26.3476C26.5679 25.8798 28.0681 26.4929 28.4296 27.7821C28.4901 27.9957 28.7486 28.3467 28.286 28.4643C27.9047 28.5612 27.8615 28.3026 27.7733 27.9965C27.4957 27.0454 26.5792 26.6416 25.3453 26.8768C24.5195 27.035 24.1555 27.5253 24.1849 28.3692C24.2065 28.9745 24.5662 29.2858 25.0885 29.4501C25.6557 29.6273 26.2411 29.751 26.81 29.9248C28.3215 30.3856 28.919 31.1474 28.746 32.3623C28.5809 33.5296 27.5917 34.2144 26.0898 34.2066Z" fill="white"/>
<path d="M9.2163 30.0236C9.21025 30.992 9.31314 31.7347 9.71175 32.4118C10.2807 33.3776 11.173 33.7088 12.2409 33.5929C13.2353 33.4866 13.9279 32.9669 14.1613 31.9647C14.2253 31.6915 14.2885 31.4459 14.6343 31.5246C15.0494 31.6171 14.841 31.9431 14.79 32.1377C14.515 33.1701 13.8535 33.886 12.7934 34.1083C11.5829 34.3625 10.4121 34.2492 9.51374 33.2436C8.20982 31.784 8.14843 28.7525 9.41863 27.2774C10.2833 26.2795 11.4169 26.0556 12.6646 26.2951C13.6849 26.4914 14.4268 27.0422 14.7182 28.0737C14.764 28.2363 14.9689 28.4637 14.6689 28.5649C14.4718 28.6306 14.2746 28.6453 14.1164 28.3599C13.3512 26.9765 12.6741 26.6401 11.2716 26.8805C10.1925 27.0655 9.45581 27.9484 9.26299 29.3016C9.22062 29.6051 9.22322 29.9172 9.2163 30.0236Z" fill="white"/>
<path d="M30.4655 30.1928C30.4655 29.0999 30.4802 28.0069 30.4577 26.9149C30.4499 26.5136 30.5779 26.3718 30.9895 26.3857C31.8109 26.4133 32.6324 26.3589 33.4547 26.4064C34.852 26.486 35.5809 27.2305 35.5965 28.5154C35.612 29.7475 34.9203 30.4946 33.5619 30.6416C32.9135 30.7023 32.2621 30.7236 31.6112 30.7056C31.2083 30.7012 31.069 30.824 31.0924 31.2365C31.1313 31.936 31.1227 32.639 31.1019 33.3394C31.095 33.5789 31.2636 33.9688 30.801 33.9835C30.2761 34 30.4448 33.5685 30.4404 33.3048C30.4205 32.2672 30.4327 31.2296 30.4327 30.192L30.4655 30.1928ZM31.1114 28.5266C31.1114 28.9209 31.1166 29.3143 31.1114 29.7086C31.1071 29.9317 31.1503 30.1055 31.4236 30.0951C32.2433 30.064 33.0751 30.2093 33.8801 29.9671C34.6505 29.7354 35.0206 29.1682 34.9376 28.358C34.8589 27.5798 34.4188 27.1319 33.625 27.061C33.2869 27.0299 32.9445 27.0221 32.6047 27.0212C31.1131 27.0126 31.1131 27.0178 31.1114 28.5266Z" fill="white"/>
<path d="M48.1641 30.827C48.8601 30.5892 49.0711 30.9325 49.1299 31.4426C49.2094 32.1344 49.2734 32.8261 49.3296 33.5178C49.3426 33.6795 49.6677 33.9381 49.206 33.9934C48.8921 34.0315 48.7183 33.9 48.6872 33.6008C48.6405 33.159 48.6267 32.7137 48.5756 32.2718C48.5194 31.7764 48.4537 31.2775 48.1641 30.827Z" fill="white"/>
</g>
<defs>
<clipPath id="clip0_1_136">
<rect width="43.154" height="12.21" fill="white" transform="translate(8.5 24)"/>
</clipPath>
</defs>
</svg>
