<svg width="60" height="60" viewBox="0 0 60 60" fill="none" xmlns="http://www.w3.org/2000/svg">
<rect width="60" height="60" rx="30" fill="#3F4195"/>
<path d="M28.116 28.9926C27.8149 29.0306 27.5113 29.0455 27.208 29.0371H25.45L25.85 28.2776C25.8766 28.2252 25.9186 28.1821 25.9706 28.1538C26.0226 28.1256 26.082 28.1136 26.141 28.1194C26.563 28.1194 26.984 28.1194 27.406 28.1194C27.5449 28.1188 27.6834 28.1033 27.819 28.0729C27.9822 28.0444 28.1326 27.9669 28.2496 27.8508C28.3666 27.7347 28.4446 27.5858 28.473 27.4243C28.526 27.1832 28.526 26.9336 28.473 26.6925C28.4437 26.5053 28.3522 26.333 28.213 26.2029C28.0737 26.0727 27.8947 25.9921 27.704 25.9737C27.5832 25.9547 27.4612 25.9451 27.339 25.945C26.7316 25.945 26.1246 25.945 25.518 25.945C25.283 25.945 25.203 26.0261 25.203 26.2614C25.203 27.1444 25.203 28.0275 25.203 28.9105C25.203 29.0094 25.179 29.044 25.072 29.042C24.739 29.0341 24.406 29.0361 24.072 29.042C23.989 29.042 23.955 29.0291 23.955 28.9362C23.955 27.6731 23.955 26.4111 23.955 25.15C23.955 25.0709 23.972 25.0442 24.055 25.0442C25.255 25.0442 26.45 25.0442 27.647 25.0442C27.9506 25.0415 28.2525 25.0897 28.54 25.1866C29.219 25.4229 29.597 25.9104 29.72 26.5956C29.8029 27.0107 29.7708 27.4402 29.627 27.8386C29.373 28.5377 28.838 28.8838 28.116 28.9926ZM35.039 25.0076C34.72 25.0076 34.404 25.0076 34.088 25.0076C34.0093 25.0025 33.9312 25.0241 33.8666 25.0689C33.8021 25.1136 33.7549 25.1789 33.733 25.2538C33.669 25.4387 33.598 25.6206 33.533 25.8046L32.864 27.6487C32.846 27.6042 32.832 27.5756 32.821 27.5449C32.521 26.736 32.214 25.9262 31.915 25.1154C31.9081 25.0795 31.8876 25.0477 31.8576 25.0265C31.8276 25.0053 31.7904 24.9964 31.754 25.0016C31.438 25.0086 31.121 25.0066 30.805 25.0016C30.7727 24.9964 30.7396 25.0038 30.7127 25.0223C30.6858 25.0407 30.6673 25.0688 30.661 25.1005C30.367 25.9285 30.0703 26.7548 29.771 27.5795C29.7346 27.6781 29.7374 27.7866 29.779 27.8831C29.906 28.2035 30.027 28.5268 30.16 28.8462C30.186 28.9085 30.16 29.0183 30.282 29.0202C30.404 29.0222 30.462 28.9481 30.5 28.8462C30.513 28.8116 30.529 28.778 30.54 28.7473C30.707 28.2282 30.891 27.715 31.079 27.2038L31.3 26.6045C31.323 26.652 31.334 26.6728 31.343 26.6945C31.609 27.3986 31.877 28.1026 32.143 28.8067C32.1554 28.8589 32.1868 28.9048 32.2312 28.9357C32.2757 28.9665 32.33 28.9801 32.384 28.9738C32.684 28.9639 32.992 28.9738 33.295 28.9738C33.3456 28.9775 33.3964 28.9706 33.4441 28.9535C33.4919 28.9365 33.5354 28.9097 33.572 28.8749C33.637 28.7927 33.6849 28.6986 33.713 28.598C33.937 27.9981 34.161 27.3976 34.385 26.7964C34.5983 26.2281 34.8123 25.6599 35.027 25.0916C35.033 25.059 35.057 25.0333 35.039 25.0076ZM29.673 28.0354C29.623 28.066 29.616 28.1095 29.597 28.1432C29.4506 28.4171 29.2305 28.6457 28.961 28.8037C28.843 28.8719 28.843 28.9125 28.961 28.9797C28.9965 29.0022 29.037 29.0157 29.079 29.0193C29.379 29.0252 29.685 29.0272 29.988 29.0291C30.023 29.0291 30.045 29.0291 30.028 28.9797L29.673 28.0354ZM28.353 26.6332C28.3177 26.4923 28.2365 26.3668 28.1219 26.276C28.0073 26.1852 27.8657 26.1342 27.719 26.1309C27.904 26.6075 28.089 27.0812 28.283 27.5795C28.4234 27.2834 28.4484 26.9464 28.353 26.6332Z" fill="#121212"/>
<path d="M4.5 32.1847C4.553 32.2292 4.605 32.1847 4.658 32.1847C5.606 32.1896 6.558 32.1847 7.503 32.1847C7.71812 32.1844 7.93245 32.2106 8.141 32.2628C8.44511 32.3326 8.71814 32.4981 8.91916 32.7343C9.12018 32.9705 9.23837 33.2648 9.256 33.573C9.28082 33.8042 9.26833 34.0378 9.219 34.2652C9.062 34.9079 8.645 35.2649 8 35.3835C7.82191 35.4163 7.64115 35.4328 7.46 35.433H5.76C5.883 35.2026 5.982 34.9751 6.12 34.7675C6.14519 34.7364 6.17829 34.7125 6.21589 34.6983C6.2535 34.684 6.29426 34.6799 6.334 34.6864H7.282C7.39146 34.6869 7.50079 34.679 7.609 34.6627C7.76535 34.6498 7.91231 34.5836 8.0247 34.4754C8.13709 34.3671 8.2079 34.2236 8.225 34.0694C8.25749 33.8928 8.25749 33.7119 8.225 33.5354C8.161 33.1933 7.916 32.9807 7.543 32.9421C7.3328 32.9251 7.12182 32.9195 6.911 32.9253C6.557 32.9253 6.203 32.9253 5.849 32.9253C5.634 32.9253 5.568 32.9896 5.568 33.1992C5.568 33.8983 5.568 34.5984 5.568 35.2975C5.568 35.4231 5.532 35.4478 5.415 35.4439C5.171 35.434 4.926 35.4439 4.681 35.4439C4.607 35.4439 4.539 35.4508 4.544 35.345C4.544 35.3173 4.516 35.3272 4.502 35.345L4.5 32.1847Z" fill="white"/>
<path d="M54.5005 34.5599C54.4555 34.5905 54.4695 34.6429 54.4585 34.6845C54.4115 34.8922 54.2955 35.0784 54.1289 35.2132C53.9623 35.348 53.7547 35.4237 53.5395 35.4281C52.4475 35.439 51.3555 35.4281 50.2665 35.4281C50.2455 35.4063 50.2585 35.3885 50.2665 35.3707C50.3615 35.1937 50.4585 35.0187 50.5485 34.8407C50.5715 34.7893 50.6102 34.7463 50.6591 34.7177C50.7081 34.6892 50.7649 34.6765 50.8215 34.6815C51.6275 34.6815 52.4325 34.6815 53.2375 34.6815C53.4145 34.6815 53.5215 34.6024 53.5375 34.463C53.5462 34.4229 53.5451 34.3814 53.5343 34.3418C53.5236 34.3022 53.5034 34.2658 53.4756 34.2354C53.4477 34.2051 53.4129 34.1817 53.3742 34.1673C53.3354 34.1529 53.2937 34.1478 53.2525 34.1525C52.6325 34.1525 52.0128 34.1525 51.3935 34.1525C51.2798 34.1527 51.1662 34.1454 51.0535 34.1307C50.6065 34.0704 50.2535 33.7827 50.1685 33.402C50.0355 32.8215 50.3895 32.3142 50.9985 32.2075C51.0939 32.1907 51.1906 32.1818 51.2875 32.1808C52.1602 32.1808 53.0328 32.1808 53.9055 32.1808C53.9305 32.1808 53.9555 32.1808 54.0055 32.1808C53.8825 32.4042 53.7875 32.6297 53.6515 32.8334C53.5955 32.9174 53.5065 32.9085 53.4235 32.9085H51.4615C51.4245 32.9085 51.3855 32.9085 51.3485 32.9085C51.3136 32.908 51.2789 32.9144 51.2466 32.9275C51.2143 32.9406 51.185 32.96 51.1606 32.9846C51.1361 33.0092 51.1169 33.0384 51.1041 33.0706C51.0914 33.1027 51.0854 33.1371 51.0865 33.1716C51.0876 33.205 51.0956 33.2379 51.11 33.2682C51.1244 33.2985 51.1449 33.3255 51.1703 33.3477C51.1957 33.3698 51.2254 33.3866 51.2576 33.3969C51.2898 33.4073 51.3238 33.411 51.3575 33.4079H53.3805C54.0055 33.4079 54.3455 33.6798 54.4805 34.286C54.4805 34.2919 54.4925 34.2959 54.4985 34.3008L54.5005 34.5599Z" fill="#0298D9"/>
<path d="M38.5058 35.5636C38.5053 35.5706 38.5053 35.5776 38.5058 35.5846H38.0508C38.0513 35.5776 38.0513 35.5706 38.0508 35.5636H38.5058Z" fill="#D3D2D2"/>
<path d="M31.3877 34.6727C31.5987 34.0873 31.8027 33.5197 32.0077 32.9531C32.0897 32.7257 32.1747 32.4992 32.2527 32.2708C32.2578 32.2428 32.274 32.2179 32.2976 32.2016C32.3212 32.1853 32.3503 32.1789 32.3787 32.1838C32.6267 32.1838 32.8787 32.1907 33.1247 32.1838C33.1636 32.1759 33.204 32.1835 33.2372 32.205C33.2703 32.2265 33.2935 32.2601 33.3017 32.2985C33.5707 33.0332 33.8457 33.7659 34.1187 34.4996C34.1367 34.5461 34.1557 34.5916 34.1747 34.6401C34.2277 34.6203 34.2247 34.5728 34.2377 34.5412C34.5084 33.7936 34.7777 33.0454 35.0457 32.2965C35.0523 32.261 35.0728 32.2295 35.1028 32.209C35.1328 32.1884 35.1698 32.1804 35.2057 32.1868C35.4547 32.1937 35.7057 32.1868 35.9527 32.1868C36.0237 32.1868 36.0527 32.1947 36.0207 32.2758C35.6607 33.2646 35.3057 34.2475 34.9467 35.2334C34.8817 35.4094 34.8357 35.4311 34.6467 35.4361C34.3137 35.4361 33.9807 35.4361 33.6467 35.4361C33.6126 35.4416 33.5776 35.4339 33.5491 35.4146C33.5206 35.3952 33.5007 35.3657 33.4937 35.3322C33.2817 34.7666 33.0637 34.204 32.8477 33.6403C32.8317 33.5978 32.8147 33.5573 32.7877 33.49C32.6337 33.9133 32.4877 34.3108 32.3427 34.7073C32.2757 34.8912 32.2047 35.0732 32.1427 35.2581C32.1284 35.3129 32.0948 35.3609 32.0478 35.3934C32.0009 35.4259 31.9437 35.4406 31.8867 35.4351C31.5327 35.4351 31.1787 35.4351 30.8247 35.4351C30.7677 35.4351 30.7337 35.4242 30.7117 35.3649C30.3117 34.3101 29.9117 33.259 29.5117 32.2115C29.5117 32.2115 29.5117 32.2036 29.5177 32.1858C29.8117 32.1858 30.1087 32.1858 30.4057 32.1858C30.4797 32.1858 30.4777 32.2441 30.4937 32.2847C30.7731 33.0289 31.0514 33.7735 31.3287 34.5184C31.3417 34.5659 31.3617 34.6124 31.3877 34.6727Z" fill="#0298D9"/>
<path d="M26.6793 34.4727C26.8303 34.0772 26.9793 33.6886 27.1223 33.3049C27.2423 32.9944 27.3683 32.6859 27.4853 32.3744C27.5015 32.3141 27.5391 32.2615 27.5912 32.2263C27.6434 32.191 27.7066 32.1755 27.7693 32.1826C28.1743 32.1895 28.5793 32.1876 28.9833 32.1826C29.0673 32.1826 29.0893 32.2054 29.0893 32.2864C29.0893 33.303 29.0893 34.3191 29.0893 35.335C29.0893 35.4102 29.0703 35.4339 28.9893 35.4339C28.7243 35.4289 28.4583 35.427 28.1893 35.4339C28.0893 35.4339 28.0733 35.4013 28.0743 35.3133C28.0743 34.5845 28.0743 33.8557 28.0743 33.1269V32.9935C28.0354 33.0286 28.0103 33.0762 28.0033 33.1279C27.7383 33.8597 27.4733 34.5914 27.2153 35.3251C27.2076 35.3607 27.1862 35.3919 27.1555 35.412C27.1249 35.4321 27.0875 35.4396 27.0513 35.4329C26.8113 35.428 26.5703 35.427 26.3303 35.4329C26.2944 35.4393 26.2574 35.4315 26.2273 35.4111C26.1972 35.3908 26.1764 35.3595 26.1693 35.3241C25.9033 34.5924 25.6313 33.8607 25.3533 33.1289C25.3428 33.0777 25.3175 33.0306 25.2803 32.9935V33.123C25.2803 33.8389 25.2803 34.5558 25.2803 35.2717C25.2803 35.4616 25.3053 35.4319 25.1113 35.4339C24.8663 35.4339 24.6223 35.4339 24.3773 35.4339C24.3033 35.4339 24.2773 35.4181 24.2773 35.335C24.2773 34.361 24.2773 33.386 24.2773 32.412C24.2773 32.2449 24.3473 32.1806 24.5193 32.1806C24.8983 32.1806 25.2773 32.1806 25.6573 32.1806C25.6955 32.1747 25.7345 32.1833 25.7665 32.2048C25.7984 32.2263 25.8209 32.259 25.8293 32.2963C26.0943 32.9836 26.3633 33.6698 26.6293 34.3551C26.6453 34.3917 26.6603 34.4253 26.6793 34.4727Z" fill="white"/>
<path d="M44.2706 34.4344L45.4356 35.4123C45.3956 35.4489 45.3566 35.4331 45.3216 35.4331C44.9846 35.4331 44.6476 35.4331 44.3106 35.4331C44.2396 35.4355 44.1706 35.4098 44.1186 35.3619C43.8186 35.1028 43.5186 34.8487 43.2236 34.5896C43.1949 34.5628 43.1609 34.5421 43.1237 34.5288C43.0866 34.5156 43.0471 34.51 43.0076 34.5125C42.7336 34.5174 42.4596 34.5125 42.1856 34.5125C42.1086 34.5125 42.0856 34.4976 42.1276 34.4225C42.2156 34.2623 42.2996 34.0991 42.3826 33.935C42.4057 33.8813 42.4455 33.8363 42.4962 33.8064C42.5469 33.7765 42.6059 33.7634 42.6646 33.7689C42.9646 33.7738 43.2716 33.7738 43.5756 33.7689C43.6645 33.7713 43.7517 33.7448 43.8239 33.6936C43.8962 33.6423 43.9494 33.5691 43.9756 33.4851C44.0051 33.4022 44.0083 33.3124 43.9849 33.2276C43.9615 33.1428 43.9126 33.0671 43.8446 33.0104C43.758 32.9414 43.6488 32.9062 43.5376 32.9116H42.0376C41.8526 32.9116 41.7796 32.9867 41.7796 33.1726C41.7796 33.8806 41.7796 34.5886 41.7796 35.2956C41.7796 35.3945 41.7566 35.4311 41.6496 35.4281C41.3876 35.4192 41.1266 35.4281 40.8656 35.4281C40.7956 35.4281 40.7656 35.4113 40.7656 35.3382C40.7656 34.3137 40.7656 33.2896 40.7656 32.2658C40.7656 32.1897 40.7956 32.1768 40.8656 32.1768C41.8656 32.1768 42.8716 32.1769 43.8746 32.1818C44.1297 32.1934 44.374 32.2866 44.5708 32.4475C44.7676 32.6084 44.9061 32.8282 44.9655 33.0738C45.0248 33.3194 45.0019 33.5773 44.9 33.8089C44.7981 34.0404 44.6228 34.2328 44.4006 34.3572L44.2706 34.4344Z" fill="#0298D9"/>
<path d="M14.4068 35.433C14.0158 35.433 13.6248 35.433 13.2338 35.433C13.1748 35.433 13.1438 35.3924 13.1068 35.3618C12.8068 35.1057 12.5068 34.8495 12.2068 34.5895C12.1803 34.5642 12.149 34.5445 12.1146 34.5314C12.0803 34.5184 12.0436 34.5122 12.0068 34.5133C11.7068 34.5133 11.3998 34.5133 11.0698 34.5133C11.2018 34.275 11.2938 34.0367 11.4478 33.8301C11.4908 33.7717 11.5588 33.7757 11.6218 33.7747C11.9298 33.7747 12.2368 33.7747 12.5448 33.7747C12.6095 33.7783 12.6742 33.7672 12.7338 33.7421C12.7935 33.7171 12.8465 33.6788 12.8888 33.6302C12.931 33.5816 12.9614 33.5241 12.9775 33.462C12.9937 33.4 12.9951 33.3351 12.9818 33.2724C12.9705 33.1889 12.9331 33.1111 12.8748 33.0497C12.8166 32.9884 12.7403 32.9466 12.6568 32.9302C12.6071 32.9204 12.5565 32.9154 12.5058 32.9154H11.0378C10.8378 32.9154 10.7688 32.9826 10.7688 33.1883C10.7688 33.8924 10.7688 34.5964 10.7688 35.3005C10.7688 35.3993 10.7468 35.4369 10.6388 35.4339C10.3818 35.425 10.1238 35.4339 9.86683 35.4339C9.78983 35.4339 9.75683 35.4221 9.75783 35.3351C9.75783 34.3185 9.75783 33.302 9.75783 32.2855C9.75783 32.2024 9.78283 32.1866 9.86383 32.1866C10.8458 32.1866 11.8288 32.1866 12.8118 32.1866C13.0731 32.1883 13.3265 32.2754 13.5327 32.4341C13.7388 32.5929 13.8862 32.8146 13.9518 33.0647C14.0164 33.3152 13.9942 33.5798 13.8889 33.8164C13.7836 34.0529 13.6012 34.2478 13.3708 34.37C13.2708 34.4234 13.2628 34.4471 13.3538 34.5212C13.7108 34.813 14.0618 35.1145 14.4148 35.4112L14.4068 35.433Z" fill="white"/>
<path d="M38.5053 35.5636H38.0523C37.7996 35.55 37.5503 35.5 37.3123 35.4153C36.6973 35.1829 36.3843 34.7231 36.3053 34.0962C36.2651 33.8065 36.2852 33.5117 36.3643 33.2299C36.4326 32.9621 36.5748 32.7183 36.775 32.5258C36.9752 32.3332 37.2256 32.1994 37.4983 32.1393C37.9864 32.0164 38.4971 32.0099 38.9883 32.1205C39.7533 32.2896 40.2293 32.8591 40.2713 33.6354C40.2922 33.906 40.2644 34.1782 40.1893 34.4393C39.9983 35.0593 39.5423 35.3777 38.9263 35.5102C38.7876 35.5391 38.6468 35.557 38.5053 35.5636ZM37.2183 33.8035C37.2183 33.8569 37.2183 33.9112 37.2183 33.9646C37.2473 34.4531 37.5013 34.7468 37.9703 34.8259C38.1868 34.863 38.4084 34.861 38.6243 34.82C39.0343 34.7409 39.2693 34.5065 39.3343 34.1001C39.3734 33.878 39.3669 33.6503 39.3153 33.4307C39.286 33.2715 39.2081 33.125 39.0921 33.011C38.976 32.8969 38.8274 32.8208 38.6663 32.7929C38.4802 32.7576 38.29 32.748 38.1013 32.7642C37.7283 32.7909 37.4363 32.9372 37.2943 33.3011C37.2337 33.4615 37.2078 33.6326 37.2183 33.8035Z" fill="#0298D9"/>
<path d="M23.8584 35.4329C23.5014 35.4329 23.1584 35.4329 22.8114 35.4329C22.7903 35.4344 22.7693 35.4293 22.7513 35.4183C22.7333 35.4073 22.7194 35.3909 22.7114 35.3716C22.6644 35.2786 22.6114 35.1896 22.5664 35.0947C22.5427 35.0303 22.4977 34.9757 22.4387 34.9398C22.3797 34.9039 22.3102 34.8888 22.2414 34.8969C21.7864 34.9058 21.3304 34.8969 20.8754 34.9019C20.7754 34.9019 20.7454 34.888 20.8024 34.7892C20.8914 34.6339 20.9694 34.4727 21.0524 34.3135C21.0748 34.2617 21.1134 34.2184 21.1625 34.1897C21.2116 34.1611 21.2687 34.1487 21.3254 34.1543C21.5314 34.1632 21.7384 34.1543 21.9454 34.1543C22.0254 34.1543 22.0544 34.1444 22.0084 34.0604C21.8084 33.6945 21.6084 33.3267 21.4154 32.9578C21.3574 32.9717 21.3544 33.0251 21.3344 33.0617C20.9344 33.8171 20.538 34.5752 20.1454 35.336C20.1333 35.3681 20.1107 35.3953 20.0811 35.4132C20.0516 35.4312 20.0168 35.4388 19.9824 35.4349C19.6504 35.4299 19.3174 35.4349 18.9824 35.4349C18.9734 35.3923 18.9984 35.3666 19.0134 35.336C19.5284 34.3916 20.0504 33.4503 20.5554 32.501C20.6794 32.2676 20.8214 32.15 21.1034 32.1767C21.3894 32.1936 21.6762 32.1953 21.9624 32.1816C21.9888 32.1779 22.0157 32.1827 22.0393 32.1951C22.0628 32.2075 22.0818 32.2271 22.0934 32.2508C22.6714 33.2944 23.2507 34.3369 23.8314 35.3785C23.8434 35.3894 23.8464 35.4022 23.8584 35.4329Z" fill="white"/>
<path d="M46.8762 33.6284C47.3762 33.1557 47.8492 32.7107 48.3182 32.2618C48.3439 32.2354 48.3751 32.2147 48.4096 32.2013C48.4441 32.1878 48.4811 32.1818 48.5182 32.1837C48.8952 32.1837 49.2732 32.1837 49.6832 32.1837L49.4892 32.3587C48.9892 32.8027 48.4962 33.2487 47.9962 33.6887C47.9232 33.753 47.9242 33.7797 47.9962 33.842C48.5962 34.3423 49.1962 34.8476 49.7962 35.3509C49.8202 35.3717 49.8562 35.3826 49.8622 35.432H48.6002C48.5422 35.432 48.5112 35.3865 48.4742 35.3549C47.9735 34.929 47.4735 34.5005 46.9742 34.0694L46.9002 34.019C46.8582 34.0546 46.8782 34.0991 46.8782 34.1366C46.8782 34.5322 46.8782 34.9277 46.8782 35.3232C46.8782 35.4083 46.8582 35.4379 46.7672 35.436C46.5022 35.43 46.2362 35.43 45.9672 35.436C45.8802 35.436 45.8672 35.4073 45.8672 35.3292C45.8672 34.314 45.8672 33.2981 45.8672 32.2816C45.8672 32.2055 45.8862 32.1827 45.9672 32.1827C46.2339 32.1873 46.5035 32.1873 46.7762 32.1827C46.8642 32.1827 46.8762 32.2134 46.8762 32.2905C46.8762 32.686 46.8762 33.0816 46.8762 33.4771V33.6284Z" fill="#0298D9"/>
<path d="M18.7835 32.1848C18.6665 32.4004 18.5605 32.5981 18.4535 32.7949C18.4293 32.8365 18.3929 32.8699 18.3492 32.8907C18.3055 32.9115 18.2564 32.9188 18.2085 32.9116C17.5215 32.9116 16.8345 32.9116 16.1475 32.9116C15.9265 32.9116 15.8625 32.9749 15.8625 33.1944C15.8625 33.4614 15.8625 33.4614 16.1265 33.4614H18.2015C18.0865 33.672 17.9815 33.8648 17.8745 34.0547C17.8225 34.1486 17.7295 34.1536 17.6335 34.1536C17.1315 34.1536 16.6315 34.1536 16.1335 34.1536C15.9335 34.1536 15.8645 34.2178 15.8645 34.4235C15.8645 34.7202 15.8645 35.0237 15.8645 35.3234C15.8645 35.3985 15.8535 35.4331 15.7645 35.4311C15.4955 35.4252 15.2255 35.4311 14.9555 35.4311C14.8815 35.4311 14.8555 35.4163 14.8555 35.3323C14.8555 34.3118 14.8555 33.2916 14.8555 32.2718C14.8555 32.2076 14.8645 32.1729 14.9425 32.1729C16.2125 32.1848 17.4855 32.1848 18.7835 32.1848Z" fill="white"/>
<path d="M18.7998 34.7003C18.6938 34.904 18.5998 35.088 18.4998 35.2729C18.4769 35.3245 18.4383 35.3678 18.3894 35.3968C18.3405 35.4259 18.2837 35.4392 18.2268 35.435C17.5408 35.435 16.8545 35.435 16.1678 35.435C16.0808 35.435 16.0678 35.4172 16.1068 35.3362C16.1988 35.1681 16.2848 34.996 16.3738 34.8269C16.3876 34.7893 16.4125 34.7567 16.4454 34.7334C16.4782 34.7101 16.5174 34.6972 16.5578 34.6964L18.7998 34.7003Z" fill="white"/>
</svg>
