<svg width="60" height="62" viewBox="0 0 60 62" fill="none" xmlns="http://www.w3.org/2000/svg">
<rect y="2" width="60" height="60" rx="30" fill="#13AFEE"/>
<path d="M33.7931 20V32.7533C33.7862 35.0477 32.8797 37.255 31.2548 38.9339C29.63 40.6127 27.4066 41.6394 25.0292 41.8085H25C26.6495 43.2254 28.7847 44.0059 30.9955 44C33.3837 44 35.674 43.0869 37.3627 41.4616C39.0513 39.8363 40 37.632 40 35.3335V20H33.7931Z" fill="white"/>
<path d="M22.5264 34.3453C22.895 34.6621 23.3455 34.8743 23.8289 34.9589C24.3123 35.0434 24.8102 34.9971 25.2686 34.8249C25.7845 34.6242 26.2261 34.2757 26.5351 33.8252C26.8442 33.3748 27.0062 32.8435 26.9998 32.3014V20H22V33.2132C21.9991 33.4292 22.0456 33.6429 22.1364 33.8399C22.2272 34.0368 22.3602 34.2125 22.5264 34.3551V34.3453Z" fill="white"/>
<path d="M22.0403 38.0077C21.7841 37.0068 21.6293 35.981 21.5784 34.9469C21.5361 34.1383 21.4889 33.2101 21.4889 32.9861V31H16V33.1899C16.0001 35.4373 16.8278 37.6 18.3143 39.2371C19.8009 40.8742 21.8343 41.8623 24 42C22.9738 40.8242 22.4306 39.4833 22.0403 38.0077Z" fill="white"/>
<path d="M27.7805 20V32.9653C27.7811 33.5703 27.6218 34.1627 27.3218 34.6713C27.0218 35.1799 26.5938 35.5832 26.0891 35.8328C25.5844 36.0823 25.0245 36.1675 24.4766 36.0782C23.9286 35.9889 23.4159 35.7288 23 35.3291V35.817C22.9991 36.9783 23.2184 38.1272 23.6442 39.1913C24.0699 40.2554 24.6928 41.2118 25.4737 42C27.5161 41.8413 29.4277 40.8439 30.824 39.2084C32.2203 37.573 32.9977 35.4208 33 33.1848V20.0152L27.7805 20Z" fill="white"/>
<g filter="url(#filter0_d_1_114)">
<rect x="45" y="2" width="10" height="10" rx="5" fill="#34D399"/>
</g>
<defs>
<filter id="filter0_d_1_114" x="43" y="0" width="14" height="14" filterUnits="userSpaceOnUse" color-interpolation-filters="sRGB">
<feFlood flood-opacity="0" result="BackgroundImageFix"/>
<feColorMatrix in="SourceAlpha" type="matrix" values="0 0 0 0 0 0 0 0 0 0 0 0 0 0 0 0 0 0 127 0" result="hardAlpha"/>
<feMorphology radius="2" operator="dilate" in="SourceAlpha" result="effect1_dropShadow_1_114"/>
<feOffset/>
<feColorMatrix type="matrix" values="0 0 0 0 1 0 0 0 0 1 0 0 0 0 1 0 0 0 1 0"/>
<feBlend mode="normal" in2="BackgroundImageFix" result="effect1_dropShadow_1_114"/>
<feBlend mode="normal" in="SourceGraphic" in2="effect1_dropShadow_1_114" result="shape"/>
</filter>
</defs>
</svg>
