<svg width="60" height="63" viewBox="0 0 60 63" fill="none" xmlns="http://www.w3.org/2000/svg">
<rect y="3" width="60" height="60" rx="30" fill="#000065"/>
<path d="M32.0259 30.5339C32.0287 30.5308 32.0259 30.5278 32.023 30.5278C31.9885 30.4329 31.8738 30.4084 31.759 30.4023C31.7045 30.4023 31.6499 30.3962 31.5925 30.3931H31.5811C31.4605 30.384 31.3429 30.3778 31.2252 30.4054C31.2252 30.4054 31.2224 30.4054 31.2195 30.4084C31.1937 30.4115 31.1707 30.4207 31.1478 30.4299C31.1076 30.4452 31.0674 30.4635 31.0301 30.488H31.0272C30.7719 30.4911 30.5222 30.4941 30.2697 30.4972C29.0013 30.5094 29.0013 30.5094 29.5265 29.2701C29.5695 29.1691 29.6671 29.059 29.558 28.9641C29.5006 28.9182 29.3859 28.9274 29.3026 28.9396C28.7861 29.0192 28.4332 29.3313 28.3126 29.8668C28.2007 30.3625 27.9597 30.5676 27.4776 30.5002C27.2308 30.4635 26.9668 30.4819 26.786 30.7297C26.6397 31.0051 26.8262 31.051 27.0041 31.0786C27.007 31.0786 27.007 31.0786 27.007 31.0786H27.0185C27.2308 31.1061 27.446 31.0847 27.6584 31.0908C27.6957 31.0969 27.7359 31.0969 27.7732 31.1061C27.8219 31.1153 27.865 31.1398 27.8765 31.2224C27.8191 32.1373 27.4661 32.8473 26.7143 33.3583C25.8993 33.9091 25.9309 33.9336 25.4574 33.0584C25.1934 32.5719 24.8778 32.1557 25.5665 31.7212C25.8305 31.5529 25.8333 31.1398 25.5464 30.8674C25.2824 30.6165 25.0184 30.6532 24.7831 30.9164C24.6224 31.0969 24.4789 31.2928 24.3268 31.4825C24.0858 31.8405 24.3211 32.2689 24.1805 32.6422C23.9251 33.2971 23.5004 33.8203 23.0384 34.3069C22.7285 34.6343 22.3841 35.1514 21.902 34.8883C21.4544 34.6404 21.5634 34.0407 21.5921 33.5664C21.638 32.835 21.8446 32.1312 21.9709 31.4121C21.9939 31.2744 22.1603 30.9592 21.8303 30.9898C21.5892 31.0143 21.2305 30.7053 21.0985 31.2591C20.7743 32.6331 20.0799 33.7928 19.1358 34.7812C18.8861 35.0443 18.5877 35.3259 18.2347 35.13C17.8961 34.9434 17.9965 34.5333 18.0195 34.1906C18.0769 33.3552 18.4241 32.5902 18.5102 31.764C18.5418 31.4427 18.5877 31.1734 18.1199 31.1581C17.6924 31.1428 17.6005 31.302 17.6149 31.7151C17.6264 31.9752 17.546 32.2475 17.4858 32.5076C17.2964 33.3522 17.0668 34.1906 17.1845 35.0749C17.2792 35.8032 17.767 36.1092 18.4241 35.9226C18.9779 35.7696 19.3223 35.3626 19.6925 34.9464C20.1229 34.4629 20.2893 33.7775 20.7915 33.3552C20.9379 33.8785 20.7599 34.4232 20.8891 34.9464C21.0871 35.6594 21.4515 35.895 22.0857 35.6992C22.694 35.5095 23.1417 35.0749 23.5119 34.5486C23.8447 34.0804 24.1518 33.5939 24.4904 33.0829C24.5621 33.2022 24.608 33.2787 24.6539 33.3552C25.1877 34.2549 25.1877 34.2549 24.3584 34.7689C24.2493 34.8363 24.1374 34.9005 24.0341 34.974C23.2048 35.5645 23.1847 36.045 23.9624 36.657C24.2952 36.7824 24.6109 36.7304 24.9208 36.5743C25.489 36.4672 25.8678 36.0939 26.1519 35.5829C26.3384 35.2249 26.3326 34.8607 26.1605 34.4997V34.4966C26.2494 34.2059 27.0299 33.5755 27.4087 33.5082C27.2107 34.4017 27.2308 35.2861 27.9999 35.8277C28.591 36.2439 29.2309 35.895 29.7474 35.5064C30.1262 35.2218 30.6169 34.9189 30.4275 34.1539C30.2525 34.3589 30.1377 34.5241 29.9942 34.6527C29.8278 34.7965 29.6441 34.925 29.4547 35.0321C28.8091 35.384 28.393 35.1453 28.2811 34.3895C28.2409 34.1172 28.261 33.8571 28.2725 33.5847C28.304 32.8014 28.6283 32.0945 28.7517 31.3387C28.7976 31.1857 28.8751 31.1245 28.9669 31.1031C29.0817 31.0694 29.2165 31.1 29.3371 31.0908C29.3457 31.0908 29.3543 31.0908 29.3629 31.0878C29.3686 31.0908 29.3744 31.0908 29.3772 31.0878C29.6097 31.0725 29.8392 31.0755 30.0717 31.0847H30.0832C30.4447 31.0969 30.8063 31.1153 31.165 31.0786H31.208C31.3687 31.0633 31.5265 31.0388 31.6872 30.996C31.8537 30.9745 31.9656 30.8797 32.0201 30.7114V30.7083C32.0402 30.6349 32.0402 30.5767 32.0259 30.5339ZM24.5994 36.1949C24.3871 36.1827 24.1432 36.1704 24.1345 35.843C24.1259 35.5584 24.9438 34.772 25.268 34.7812C25.5779 34.7904 25.4402 35.0872 25.4976 35.2218C25.489 35.8124 25.0987 36.2286 24.5994 36.1949Z" fill="#FEFE00"/>
<path d="M11.9193 38.1794C11.6036 38.1825 11.3683 37.9897 11.1531 37.7908C10.5878 37.2737 10.7083 36.6525 11.4745 36.1843C11.6496 36.8881 11.9336 37.4603 12.7314 37.5124C13.6009 37.5705 14.2264 37.2523 14.6109 36.3832C15.1189 35.2357 15.2824 33.9903 15.5378 32.7724C15.8276 31.3862 16.0601 29.9817 16.3183 28.5863C16.3786 28.262 16.281 28.112 15.9568 28.1885C15.6182 28.2712 15.2738 28.3293 14.9524 28.1335C14.7745 28.0264 14.6253 27.8611 14.6712 27.6224C14.7257 27.3287 14.9553 27.4664 15.1131 27.4694C15.8649 27.4909 16.5852 27.2736 17.3112 27.1206C17.5982 27.0625 17.8794 27.0135 18.1692 27.0043C19.1133 26.9707 19.2912 27.1145 19.5581 28.1396C19.0932 28.0049 18.6599 27.8305 18.1893 27.8397C17.7302 27.8489 17.5063 28.0539 17.4231 28.5313C17.1362 30.1592 16.8693 31.7902 16.5278 33.4058C16.1662 35.1164 15.6325 36.7474 14.1461 37.7725C13.8735 37.9591 13.6066 38.1611 13.2651 38.1794C12.8117 38.3447 12.3641 38.3477 11.9193 38.1794Z" fill="#FEFE00"/>
<path d="M40.2796 34.6794C40.4976 35.169 40.799 35.3006 41.2724 35.0925C41.6856 34.912 41.9984 34.5968 42.2969 34.1959C42.535 34.5631 42.3485 34.8569 42.1563 35.068C41.5967 35.6831 40.8994 36.1543 40.093 35.934C39.3871 35.7412 39.3355 34.9487 39.2523 34.2327C39.0313 34.3061 38.928 34.4897 38.7989 34.6335C38.2737 35.2149 37.7572 35.7688 36.9509 35.9432C36.2966 36.084 35.76 35.7565 35.6883 35.0344C35.6108 34.248 35.9178 33.5136 35.9637 32.7455C35.9752 32.5527 36.0297 32.3446 35.9752 32.1733C35.8403 31.7357 36.0613 31.647 36.3856 31.5919C36.7701 31.5276 36.8648 31.7724 36.8791 32.0968C36.9193 32.9016 36.6295 33.6513 36.529 34.4316C36.486 34.7529 36.4343 35.0619 36.7156 35.2669C37.0083 35.4842 37.2809 35.2884 37.5162 35.1201C38.8247 34.1837 39.6282 32.8985 39.8319 31.2124C39.7917 31.1635 39.7458 31.1298 39.6913 31.1053C39.456 31.0686 39.2207 31.1053 38.9883 31.0747C38.7816 31.0472 38.6267 30.9646 38.7702 30.6984C38.9136 30.5148 39.1116 30.4658 39.3096 30.5025C39.8807 30.6096 40.116 30.3036 40.2939 29.7681C40.5292 29.049 40.8592 28.8715 41.568 28.948C41.393 29.352 41.2323 29.7498 41.0543 30.1353C40.9252 30.4168 41.0027 30.5117 41.281 30.5025C42.0214 30.478 42.7646 30.5668 43.5021 30.4168C43.6599 30.3862 43.9038 30.2455 43.9842 30.4658C44.076 30.7167 43.8694 30.8789 43.6599 30.9829C43.2323 31.191 42.7818 31.0533 42.3428 31.0809C41.8636 31.1084 41.3786 31.0656 40.8994 31.1023C40.8391 31.1237 40.7846 31.1574 40.7416 31.2063C40.489 31.8703 40.3369 32.5619 40.2796 33.2749C40.2509 33.3147 40.225 33.3606 40.2021 33.4034C40.1648 33.7859 40.1676 34.1684 40.1992 34.5478C40.2193 34.5999 40.2451 34.6427 40.2796 34.6794Z" fill="#FEFE00"/>
<path d="M48.9105 32.1137C48.813 32.0586 48.7125 31.9852 48.6178 32.0984C48.5203 32.2116 48.437 32.3371 48.3538 32.4625C47.6508 33.5305 46.833 34.4699 45.7167 35.0482C45.1944 35.3206 44.6349 35.5287 44.0638 35.1615C43.7367 34.9534 43.5903 34.6107 43.6018 34.2343C43.619 33.812 44.0007 34.0415 44.2044 33.9466C44.4139 33.8487 44.6636 33.8518 44.8874 33.7783C45.5646 33.558 46.1414 33.1786 46.4915 32.4962C46.8272 31.8322 46.635 31.2844 45.9635 30.957C45.9176 30.9325 45.8688 30.9142 45.8229 30.8989C45.7683 30.8805 45.7167 30.8683 45.6622 30.8622C45.6564 30.8622 45.6478 30.8622 45.6421 30.8591C45.6134 30.8591 45.5818 30.856 45.5531 30.853C45.5388 30.853 45.5244 30.8499 45.513 30.8499C45.3408 30.8407 45.1629 30.8622 44.9878 30.8652C44.9878 30.8652 44.985 30.8652 44.9821 30.8652C44.9333 30.8713 44.8816 30.8713 44.8329 30.8683C44.7697 30.8805 44.7123 30.9081 44.6607 30.9509C43.2087 31.618 42.5401 32.8053 42.6778 34.4668C42.7352 35.1645 43.1398 35.6817 43.7683 35.8653C44.1987 35.9265 44.6291 35.9295 45.0596 35.8622C46.8616 35.3298 48.0296 33.9956 48.9507 32.3524C48.9995 32.2636 49.0224 32.1749 48.9105 32.1137ZM43.6621 33.2826C43.8629 32.4136 44.2159 31.6639 45.0481 31.2997C45.4498 31.1253 45.8171 31.3977 45.8171 31.8567C45.8143 32.6798 44.523 33.7386 43.7912 33.5274C43.6391 33.4815 43.6363 33.3958 43.6621 33.2826Z" fill="#FEFE00"/>
<path d="M31.5766 31.4412C31.5996 31.4197 31.6254 31.4136 31.6541 31.4289C32.2711 31.3402 32.2768 31.3402 32.2711 31.9522C32.2682 32.1786 32.317 32.4142 32.2251 32.6346C32.2223 32.7723 32.2223 32.913 32.2194 33.0507C32.1018 33.3567 32.2022 33.6872 32.1161 33.9963C32.1333 34.1921 32.4031 34.339 32.2194 34.5777C32.1104 34.899 31.9583 35.2111 31.9009 35.5416C31.8263 35.9791 31.459 35.9394 31.2466 35.9608C30.9826 35.9883 30.9195 35.6334 30.9539 35.3886C31.0343 34.8041 31.1548 34.2258 31.2552 33.6444C31.2954 33.4179 31.327 33.1915 31.3614 32.965C31.3872 32.9222 31.4159 32.8794 31.4389 32.8365C31.5393 32.3775 31.327 31.8849 31.5766 31.4412Z" fill="#FEFE00"/>
<path d="M38.7663 28.8922C38.2871 29.7857 37.5639 30.4069 36.7461 30.9087C36.3501 31.1535 36.1205 30.973 36.1291 30.465C36.132 30.2539 36.1521 30.0397 36.1636 29.8286C36.33 29.6113 36.6112 29.7306 36.8035 29.5899C37.4405 29.394 38.0173 29.0758 38.5482 28.6566C38.7892 28.5525 38.8351 28.6627 38.7663 28.8922Z" fill="#FEFE00"/>
<path d="M33.0865 32.4471C33.3505 31.933 33.7523 31.5567 34.1597 31.1772C34.5242 30.8376 34.9546 30.9477 35.3477 30.9936C35.5658 31.0181 35.7007 31.2996 35.5285 31.5658C35.3277 31.8718 35.1784 32.288 34.6935 31.8933C34.4783 31.7188 34.197 31.8596 34.0019 32.0524C33.7379 32.3064 33.4911 32.5818 33.2357 32.848C32.9402 32.8204 33.0377 32.6215 33.0865 32.4471Z" fill="#FEFE00"/>
<path d="M33.0878 32.4473C33.1136 32.5911 33.0821 32.7594 33.237 32.8481C32.9013 33.4234 32.5627 34.0017 32.2269 34.577C32.2872 34.3506 32.0662 34.271 32.0117 34.1058C32.1064 33.9099 32.115 33.656 32.3388 33.5489C32.5311 33.1388 32.8066 32.79 33.0878 32.4473Z" fill="#FEFE00"/>
<path d="M28.7495 31.338C28.695 31.0442 28.8442 30.9677 29.0852 30.9708C29.9519 30.983 30.8185 30.9861 31.6851 30.9953C31.6822 31.0228 31.6765 31.0534 31.665 31.0779C31.0308 31.2217 30.3852 31.1024 29.7481 31.1452C29.4497 31.1666 29.1426 31.0779 28.8499 31.2064C28.8184 31.2523 28.7839 31.2952 28.7495 31.338Z" fill="#FEFE00"/>
<path d="M40.7383 31.2101C40.7383 31.1734 40.7411 31.1336 40.7411 31.0969C41.6996 30.9836 42.6551 31.0081 43.6136 31.0846C43.539 31.3294 43.3438 31.1979 43.2176 31.2009C42.394 31.2193 41.5647 31.2101 40.7383 31.2101Z" fill="#FEFE00"/>
<path d="M43.6146 31.0832C42.6562 31.0862 41.7006 31.0924 40.7422 31.0954C40.8197 30.8996 40.9861 30.97 41.1152 30.9669C41.9618 30.9669 42.8111 30.9761 43.6577 30.9822C43.6462 31.0189 43.6318 31.0526 43.6146 31.0832Z" fill="#FEFE00"/>
<path d="M28.8555 31.2075C29.019 30.975 29.2515 31.0974 29.4495 31.0912C30.1898 31.0729 30.9302 31.079 31.6705 31.0759C31.6648 31.3636 31.4668 31.1953 31.3721 31.1983C30.5342 31.2136 29.6934 31.2075 28.8555 31.2075Z" fill="#FEFE00"/>
<path d="M26.1523 35.5843C26.2126 35.2233 26.2155 34.8591 26.161 34.498C26.4393 34.801 26.4336 35.2845 26.1523 35.5843Z" fill="#FEFE00"/>
<path d="M26.7866 30.7285C26.7665 30.9978 26.9387 30.9641 27.1051 30.9733C27.3663 30.9886 27.6417 30.8785 27.8885 31.0498C27.4839 31.2885 27.0248 31.0223 26.6144 31.1998C26.5427 30.9886 26.5484 30.8111 26.7866 30.7285Z" fill="#FEFE00"/>
<path d="M32.2312 32.6356C32.2312 32.4458 32.2054 32.2531 32.2341 32.0695C32.3116 31.5676 32.1222 31.3657 31.6602 31.4299C32.2972 31.231 32.4034 31.3075 32.3632 31.9838C32.3489 32.2041 32.389 32.4458 32.2312 32.6356Z" fill="#FEFE00"/>
<path d="M31.0781 30.4096C31.2388 30.2566 32.0882 30.1924 32.1743 30.3454C32.246 30.4739 32.2805 30.6452 32.0739 30.7126C32.0767 30.4831 31.9476 30.4402 31.7639 30.4402C31.5344 30.4433 31.3019 30.4861 31.0781 30.4096Z" fill="#FEFE00"/>
<path d="M38.771 30.7012C38.7251 31.0164 38.9374 30.946 39.1067 30.9674C39.3535 30.998 39.629 30.8419 39.8499 31.0837C39.4281 31.2397 38.9833 31.0653 38.5586 31.1785C38.507 30.9582 38.5845 30.8022 38.771 30.7012Z" fill="#FEFE00"/>
<path d="M20.7898 33.3535C21.0165 33.8707 20.8558 34.4123 20.8874 34.9447C20.6865 34.4245 20.7554 33.889 20.7898 33.3535Z" fill="#FEFE00"/>
<path d="M32.3389 33.5496C32.2671 33.7607 32.1839 33.9627 32.0117 34.1065C32.0117 33.7393 32.0404 33.3782 32.2269 33.0508C32.27 33.2191 32.1925 33.4119 32.3389 33.5496Z" fill="#FEFE00"/>
<path d="M31.5831 31.4408C31.5774 31.9212 31.5688 32.4017 31.5602 32.8821C31.5602 32.8974 31.5458 32.9249 31.5401 32.9249C31.5114 32.9188 31.4856 32.9066 31.4569 32.8974C31.388 32.4078 31.3794 31.9212 31.4598 31.4316C31.5028 31.4378 31.543 31.4378 31.5831 31.4408Z" fill="#FEFE00"/>
<path d="M44.7251 30.9762C44.6993 30.9762 44.6763 30.9671 44.6562 30.9518C45.0609 30.554 45.497 30.6947 45.9332 30.8691C45.5372 31.0007 45.1182 30.811 44.7251 30.9762Z" fill="#FEFE00"/>
<path d="M31.4601 31.4336C31.4601 31.9232 31.4573 32.4097 31.4573 32.8993C31.4314 32.9269 31.4027 32.9483 31.3712 32.9636C31.397 32.4526 31.2564 31.9324 31.4601 31.4336Z" fill="#FEFE00"/>
<path d="M23.9648 36.6566C24.292 36.7515 24.599 36.5403 24.9204 36.574C24.9921 36.7117 24.952 36.7974 24.8056 36.776C24.5244 36.7331 24.2174 36.9106 23.9648 36.6566Z" fill="#FEFE00"/>
<path d="M40.2776 34.6797C40.2489 34.6674 40.2202 34.6552 40.1915 34.643C40.0796 34.2084 40.0853 33.7739 40.1886 33.3363C40.2173 33.318 40.246 33.2996 40.2747 33.2812C40.2747 33.7464 40.2776 34.2115 40.2776 34.6797Z" fill="#FEFE00"/>
<path d="M13.2337 38.2638C12.8233 38.5086 12.4072 38.4719 11.9883 38.2883C12.4015 38.1904 12.8176 38.2302 13.2337 38.2638Z" fill="#FEFE00"/>
<path d="M38.5547 31.1786C38.9765 31.0195 39.4127 31.0776 39.846 31.0837C39.8431 31.1266 39.8374 31.1694 39.8345 31.2122C39.4069 31.2031 38.9794 31.1908 38.5547 31.1786Z" fill="#FEFE00"/>
<path d="M31.079 30.4113C31.3401 30.3991 31.6041 30.3991 31.8653 30.3746C32.158 30.344 32.1264 30.5184 32.0747 30.7173L32.046 30.7204L32.0202 30.7112C31.7677 30.2461 31.3401 30.6531 31.0273 30.4878C31.0388 30.4572 31.056 30.4327 31.079 30.4113Z" fill="#FEFE00"/>
<path d="M26.6133 31.2027C27.0179 30.9671 27.4655 31.1262 27.8874 31.0527C27.939 31.1139 27.962 31.1751 27.873 31.2241C27.4541 31.2149 27.0351 31.2088 26.6133 31.2027Z" fill="#FEFE00"/>
<path d="M13.2312 38.2612C12.8151 38.2704 12.4019 38.2765 11.9858 38.2857C11.9628 38.252 11.9399 38.2153 11.9141 38.1816C12.3617 38.1847 12.8065 38.1847 13.2541 38.1878C13.2513 38.2122 13.2427 38.2367 13.2312 38.2612Z" fill="#FEFE00"/>
<path d="M43.7656 35.8644C44.1961 35.8644 44.6265 35.8644 45.0598 35.8613C44.6265 36.0541 44.1961 36.0633 43.7656 35.8644Z" fill="#FEFE00"/>
<path d="M38.7717 28.8909C38.7689 28.7379 38.7 28.6522 38.5508 28.6553C38.6024 28.4074 38.789 28.3217 38.9324 28.4747C39.0616 28.6063 39.0185 28.8328 38.7717 28.8909Z" fill="#FEFE00"/>
<path d="M24.3256 31.4805C24.1678 31.8507 24.4088 32.2791 24.1764 32.6402C24.2424 32.2577 23.9755 31.8232 24.3256 31.4805Z" fill="#FEFE00"/>
<path d="M44.7266 30.9758C45.114 30.7249 45.53 30.8932 45.9347 30.8687C45.9461 30.8993 45.9547 30.9268 45.9605 30.9574C45.5501 30.9636 45.1369 30.9697 44.7266 30.9758Z" fill="#FEFE00"/>
<path d="M36.804 29.5867C36.6375 29.804 36.4022 29.8193 36.1641 29.8254C36.2616 29.4001 36.583 29.6449 36.804 29.5867Z" fill="#FEFE00"/>
<path d="M40.1861 33.3379C40.1861 33.7724 40.189 34.2069 40.189 34.6445C39.9881 34.2069 39.991 33.7724 40.1861 33.3379Z" fill="#FEFE00"/>
<g filter="url(#filter0_d_1_61)">
<rect x="45" y="3" width="11" height="11" rx="5.5" fill="#24C78B"/>
<rect x="44.5" y="2.5" width="12" height="12" rx="6" stroke="white"/>
</g>
<defs>
<filter id="filter0_d_1_61" x="42" y="0" width="17" height="17" filterUnits="userSpaceOnUse" color-interpolation-filters="sRGB">
<feFlood flood-opacity="0" result="BackgroundImageFix"/>
<feColorMatrix in="SourceAlpha" type="matrix" values="0 0 0 0 0 0 0 0 0 0 0 0 0 0 0 0 0 0 127 0" result="hardAlpha"/>
<feMorphology radius="2" operator="dilate" in="SourceAlpha" result="effect1_dropShadow_1_61"/>
<feOffset/>
<feColorMatrix type="matrix" values="0 0 0 0 1 0 0 0 0 1 0 0 0 0 1 0 0 0 1 0"/>
<feBlend mode="normal" in2="BackgroundImageFix" result="effect1_dropShadow_1_61"/>
<feBlend mode="normal" in="SourceGraphic" in2="effect1_dropShadow_1_61" result="shape"/>
</filter>
</defs>
</svg>
