<svg width="60" height="63" viewBox="0 0 60 63" fill="none" xmlns="http://www.w3.org/2000/svg">
<rect y="3" width="60" height="60" rx="30" fill="#F1F3FE"/>
<g clip-path="url(#clip0_1_122)">
<path d="M31.3633 19.1006C34.8103 19.5516 37.708 22.2059 38.5914 25.5975C38.8597 26.627 38.9568 27.6832 38.83 28.7284C38.5954 30.6649 37.8728 32.3936 36.4869 33.8286C35.5199 34.8299 34.4317 35.6133 33.1296 36.1113C31.7746 36.6296 30.3583 36.8007 28.9477 36.611C24.498 36.0142 21.5805 32.5213 21.2197 28.7048C21.1952 28.4474 21.2176 28.3329 21.5086 28.3369C22.2339 28.3471 22.9597 28.3369 23.6852 28.3283C23.8665 28.3263 23.9714 28.3444 23.9958 28.5776C24.2235 30.7435 26.0498 32.3491 28.2262 32.2735C29.4353 32.2317 30.6438 32.2317 31.8526 32.2386C32.1987 32.2405 32.2858 32.129 32.2743 31.7987C32.2445 30.944 32.2583 30.9463 33.0953 30.9422C33.7939 30.939 34.4924 30.9314 35.1909 30.9196C35.7484 30.9102 36.131 30.5828 36.1249 30.1304C36.1193 29.672 35.7409 29.3681 35.174 29.3741C34.3143 29.3833 33.4545 29.3877 32.5952 29.4132C32.3285 29.4211 32.2445 29.3346 32.2438 29.071C32.2418 28.2121 32.2257 27.3534 32.1956 26.495C32.1851 26.213 32.3 26.1647 32.5482 26.1639C33.4348 26.1609 34.3214 26.143 35.2076 26.1177C35.6672 26.1048 35.9749 25.8622 36.0342 25.5023C36.1155 25.0093 35.7789 24.6123 35.2523 24.6115C34.3521 24.6102 33.4517 24.6155 32.5522 24.6405C32.2541 24.6489 32.1553 24.5616 32.1565 24.2568C32.1615 23.3585 32.1494 23.3528 31.2415 23.3622C30.1667 23.3733 29.0917 23.3781 28.0177 23.4138C25.854 23.4863 24.1711 25.074 23.9856 27.2048C23.9689 27.3981 23.919 27.4925 23.7029 27.4973C22.9778 27.5126 22.2525 27.5366 21.5282 27.5769C21.2312 27.5934 21.1629 27.4885 21.1886 27.2034C21.5253 23.4786 23.8523 20.5245 27.3638 19.3887C27.7816 19.2533 28.2057 19.1271 28.6492 19.1033C28.7817 19.0962 29.667 19.002 30.0343 19.002C30.3927 19.0007 31.2515 19.0859 31.3633 19.1006Z" fill="#050505"/>
<path d="M25.587 42.2079C25.587 41.2555 25.5893 40.3031 25.587 39.3507C25.587 39.1539 25.5622 38.9669 25.8586 38.9769C26.1145 38.9855 26.1657 39.1157 26.1615 39.3409C26.1502 39.9444 26.1546 40.5481 26.1573 41.1519C26.1573 41.2515 26.1074 41.3838 26.2409 41.4335C26.3662 41.4803 26.4346 41.3654 26.5018 41.2893C27.5087 40.151 29.6375 40.549 30.2667 42.28C30.3137 42.4095 30.2761 42.6265 30.4606 42.6341C30.6607 42.6424 30.6146 42.4283 30.6557 42.2967C31.1521 40.709 33.1592 40.132 34.4192 41.2139C34.5052 41.2879 34.5689 41.4335 34.7148 41.3652C34.8353 41.3088 34.7931 41.1771 34.7933 41.0758C34.7933 40.8565 34.894 40.7587 35.1161 40.7719C35.3425 40.7854 35.3619 40.9365 35.3617 41.109C35.3603 42.4369 35.3574 43.7645 35.3599 45.0923C35.3599 45.3053 35.2874 45.4144 35.0582 45.4202C34.829 45.4261 34.7895 45.3008 34.7964 45.1146C34.8002 45.0129 34.8382 44.8898 34.7093 44.8326C34.5804 44.7754 34.5113 44.8825 34.4361 44.9523C33.3554 45.955 31.2139 45.6496 30.6461 43.8077C30.6118 43.6964 30.6202 43.5411 30.4581 43.5468C30.3225 43.5514 30.3265 43.693 30.2981 43.792C29.7933 45.5489 27.5405 46.0691 26.4492 44.8677C26.3942 44.8073 26.3382 44.7396 26.248 44.7676C26.1277 44.8052 26.1534 44.9126 26.1552 45.0041C26.158 45.1487 26.2023 45.3074 26.0314 45.3943C25.7901 45.5172 25.5912 45.3929 25.5897 45.1056C25.5833 44.1399 25.587 43.1739 25.587 42.2079ZM26.121 43.0749C26.1179 44.129 26.9343 44.978 27.9508 44.9778C28.9673 44.9776 29.8257 44.1198 29.831 43.1049C29.8366 42.0986 28.9678 41.183 27.9978 41.1728C26.9516 41.1617 26.1239 42.0002 26.1206 43.0749H26.121ZM32.9587 41.2156C31.9386 41.2156 31.0982 42.0658 31.1032 43.0932C31.1086 44.1551 31.9597 44.9878 33.0366 44.9855C34.0442 44.9836 34.8332 44.1536 34.8278 43.1033C34.8207 42.0142 34.0312 41.2168 32.9583 41.2166L32.9587 41.2156Z" fill="#EC1819"/>
<path d="M43.7174 43.1321C43.1268 43.1321 42.536 43.1413 41.9456 43.1281C41.6695 43.1218 41.5905 43.2219 41.6383 43.4885C41.7637 44.1808 42.1443 44.6826 42.8057 44.8986C43.4838 45.12 44.1333 44.9894 44.6802 44.5058C44.8189 44.383 44.9309 44.2267 45.0391 44.0738C45.1659 43.8929 45.2919 43.923 45.4467 44.032C45.6071 44.144 45.5898 44.2514 45.4954 44.4033C45.0468 45.1257 44.3792 45.4825 43.5525 45.5121C42.2001 45.5606 41.3843 44.8854 41.082 43.6621C40.7269 42.2254 41.705 41.0202 42.7675 40.7253C44.1653 40.3369 45.6372 41.3311 45.7966 42.7686C45.8244 43.0193 45.7774 43.1429 45.4878 43.1344C44.8977 43.1172 44.3067 43.1293 43.7159 43.1293L43.7174 43.1321ZM43.4078 42.6353V42.6399C43.8776 42.6399 44.3478 42.6384 44.8173 42.6399C45.0638 42.6399 45.2194 42.5883 45.0972 42.2875C44.8333 41.6386 44.2141 41.2168 43.4924 41.2087C42.6428 41.1993 42.0967 41.5348 41.7842 42.2248C41.6509 42.5189 41.6952 42.6455 42.0374 42.6374C42.4946 42.6271 42.9515 42.6353 43.4078 42.6353Z" fill="#EC1819"/>
<path d="M24.8939 43.0852C24.8939 43.7295 24.8939 44.3737 24.8939 45.0179C24.8939 45.2059 24.9373 45.4123 24.6371 45.4073C24.3793 45.4029 24.32 45.2654 24.3507 45.0383C24.3641 44.9393 24.4054 44.8085 24.2686 44.7601C24.1614 44.7227 24.1015 44.8273 24.0403 44.8917C23.2602 45.6997 21.8411 45.6571 21.0502 45.0212C20.1077 44.2633 19.8369 42.9894 20.4041 41.9022C20.9205 40.9128 22.1409 40.4277 23.2341 40.781C23.546 40.8817 23.8065 41.0685 24.0451 41.2897C24.1161 41.3557 24.1596 41.5024 24.2958 41.4297C24.3952 41.3762 24.3405 41.2609 24.3522 41.1723C24.3703 41.0369 24.2826 40.8673 24.4733 40.7862C24.7031 40.6887 24.8899 40.8102 24.8911 41.0722C24.897 41.7432 24.8936 42.4142 24.8939 43.0852ZM22.5295 44.9972C23.556 45.0028 24.404 44.1912 24.413 43.1945C24.4226 42.1151 23.6321 41.2517 22.6734 41.1959C21.3947 41.1209 20.6485 42.2471 20.6531 43.0832C20.659 44.1312 21.5008 44.9917 22.5295 44.9972Z" fill="#050505"/>
<path d="M14.731 43.5575C14.6432 44.5107 13.7213 45.5707 12.3077 45.5035C11.1587 45.4489 10.2334 44.6657 10.0515 43.6636C9.83046 42.4459 10.3291 41.4126 11.3929 40.8841C12.7827 40.1947 14.5099 41.1045 14.7316 42.6431C14.7987 42.9442 14.7984 43.2565 14.731 43.5575ZM12.3862 41.2079C11.4102 41.2133 10.4977 42.1104 10.5295 43.1069C10.5687 44.3137 11.4979 45.0129 12.428 44.9969C13.4355 44.9795 14.2814 44.1086 14.2664 43.0864C14.2526 42.0757 13.3785 41.2025 12.3862 41.2079Z" fill="#050505"/>
<path d="M46.0386 40.774C46.2498 40.7413 46.3215 40.8994 46.3959 41.0665C46.8095 41.9881 47.2249 42.9089 47.6422 43.8289C47.6806 43.9137 47.717 43.9998 47.7621 44.0796C47.8666 44.2655 47.9482 44.2352 48.0274 44.0558C48.3264 43.3789 48.6332 42.7056 48.9299 42.0279C49.0671 41.7145 49.1835 41.3924 49.3216 41.0799C49.3644 40.9817 49.4309 40.8956 49.515 40.8292C49.5745 40.7845 49.6462 40.7591 49.7205 40.7561C49.7949 40.7532 49.8684 40.773 49.9312 40.8129C50.0638 40.8986 49.9706 41.0346 49.9249 41.1384C49.0893 43.0396 48.253 44.9406 47.416 46.8415C47.3426 47.0087 47.2355 47.0997 47.0587 47.1192C46.7809 47.1497 46.7084 47.0371 46.8312 46.7586C47.0419 46.2803 47.254 45.8027 47.4675 45.3257C47.5545 45.1325 47.5674 44.9536 47.473 44.7491C46.9073 43.5243 46.3555 42.293 45.7926 41.0667C45.6662 40.7918 45.8141 40.7665 46.0386 40.774Z" fill="#EC1819"/>
<path d="M19.753 41.0256C19.7542 40.825 19.6625 40.7809 19.4866 40.7694C19.1827 40.7485 19.214 40.9458 19.219 41.139C19.2213 41.2284 19.2505 41.3366 19.1396 41.3855C19.0331 41.4325 18.9669 41.3471 18.8958 41.2892C18.8248 41.2313 18.754 41.1657 18.679 41.1095C17.3792 40.1346 15.4409 40.8513 15.0785 42.4398L15.0729 42.4553C15.0729 42.4553 15.0666 42.4781 15.0664 42.4783C15.0352 42.579 15.0217 42.7511 14.9889 42.9431C14.9876 43.24 14.9617 43.1485 14.9889 43.3887C15.0179 43.4764 15.0307 43.5963 15.0593 43.6858C15.4886 45.0756 16.9171 45.7518 18.2664 45.2037C18.5171 45.1017 18.7377 44.953 18.942 44.7758C19.0607 44.673 19.2117 44.6233 19.22 44.8458C19.2409 45.4115 19.1484 45.9549 18.6631 46.3274C17.8388 46.9599 16.5049 46.8162 15.8086 46.0349C15.7551 45.9749 15.7123 45.8985 15.6469 45.8573C15.49 45.7583 15.2805 45.7362 15.1533 45.8335C14.9845 45.9626 15.1915 46.0986 15.2594 46.1993C15.8679 47.1055 16.7871 47.295 17.778 47.1772C19.2127 47.0065 19.6773 46.2006 19.7246 45.2515C19.7945 43.846 19.7444 42.4346 19.753 41.0256ZM17.3662 44.8926C16.2964 44.8861 15.5329 44.1213 15.5126 43.0883C15.4917 42.0091 16.5379 41.1214 17.5237 41.1908C18.4897 41.2587 19.2698 42.0498 19.2604 43.0883C19.2508 44.1378 18.4517 44.8984 17.3662 44.8926Z" fill="#050505"/>
<path d="M37.9378 45.0486C38.0132 44.979 38.0761 44.897 38.124 44.8062C38.1909 44.6806 38.2401 44.5462 38.2702 44.407C38.2702 44.3803 38.2723 44.354 38.2748 44.3322C38.3709 43.4941 37.8031 43.0903 37.1174 42.7694C36.8843 42.6604 36.6628 42.5212 36.4846 42.3353C36.2985 42.141 36.1648 41.9052 36.305 41.6273C36.4548 41.3303 36.6977 41.1531 37.0508 41.1815C37.2943 41.2011 37.5237 41.3035 37.7009 41.4717C37.8472 41.6069 37.984 41.6227 38.1056 41.4491C38.2192 41.2866 38.1735 41.1567 38.0193 41.0395C37.7118 40.804 37.3756 40.657 36.9831 40.6582C36.3027 40.6607 35.7762 41.1851 35.7581 41.8651C35.743 42.4324 36.0591 42.7736 36.4949 43.0425C36.7915 43.2255 37.1028 43.3851 37.3932 43.5762C37.6771 43.7623 37.8179 44.0373 37.7097 44.3746C37.5983 44.7214 37.3477 44.9335 36.9752 44.975C36.63 45.0137 36.3438 44.8819 36.0978 44.6498C35.9824 44.5403 35.8807 44.4421 35.7403 44.6274C35.5999 44.8127 35.5168 44.9347 35.8838 45.2057C36.5074 45.6653 37.3614 45.5817 37.9293 45.054L37.9378 45.0486Z" fill="#EC1819"/>
<path d="M40.633 45.0486C40.7084 44.979 40.7713 44.897 40.8191 44.8062C40.8862 44.6806 40.9354 44.5463 40.9654 44.407C40.9654 44.3803 40.9675 44.354 40.97 44.3322C41.0661 43.4941 40.4983 43.0903 39.8126 42.7694C39.5795 42.6604 39.3581 42.5212 39.1799 42.3353C38.9937 42.141 38.86 41.9052 39.0002 41.6273C39.15 41.3303 39.393 41.1531 39.746 41.1815C39.9895 41.2011 40.2189 41.3035 40.3961 41.4717C40.5423 41.6069 40.6792 41.6227 40.8008 41.4491C40.9144 41.2866 40.8687 41.1567 40.7145 41.0395C40.407 40.804 40.0708 40.657 39.6783 40.6582C38.9979 40.6607 38.4715 41.1851 38.4533 41.8651C38.4383 42.4324 38.7543 42.7736 39.1901 43.0425C39.4868 43.2255 39.7982 43.3851 40.0884 43.5762C40.3723 43.7623 40.5131 44.0373 40.4049 44.3746C40.2935 44.7214 40.0429 44.9335 39.6704 44.975C39.3253 45.0137 39.0391 44.8819 38.793 44.6498C38.6777 44.5403 38.5759 44.4421 38.4355 44.6274C38.2952 44.8127 38.2122 44.9347 38.5791 45.2057C39.2026 45.6653 40.0566 45.5817 40.6247 45.054L40.633 45.0486Z" fill="#EC1819"/>
</g>
<g filter="url(#filter0_d_1_122)">
<rect x="45" y="3" width="11" height="11" rx="5.5" fill="#24C78B"/>
<rect x="44.5" y="2.5" width="12" height="12" rx="6" stroke="white"/>
</g>
<defs>
<filter id="filter0_d_1_122" x="42" y="0" width="17" height="17" filterUnits="userSpaceOnUse" color-interpolation-filters="sRGB">
<feFlood flood-opacity="0" result="BackgroundImageFix"/>
<feColorMatrix in="SourceAlpha" type="matrix" values="0 0 0 0 0 0 0 0 0 0 0 0 0 0 0 0 0 0 127 0" result="hardAlpha"/>
<feMorphology radius="2" operator="dilate" in="SourceAlpha" result="effect1_dropShadow_1_122"/>
<feOffset/>
<feColorMatrix type="matrix" values="0 0 0 0 1 0 0 0 0 1 0 0 0 0 1 0 0 0 1 0"/>
<feBlend mode="normal" in2="BackgroundImageFix" result="effect1_dropShadow_1_122"/>
<feBlend mode="normal" in="SourceGraphic" in2="effect1_dropShadow_1_122" result="shape"/>
</filter>
<clipPath id="clip0_1_122">
<rect width="40" height="28.2089" fill="white" transform="translate(10 19)"/>
</clipPath>
</defs>
</svg>
